<svg xmlns="http://www.w3.org/2000/svg" width="26" height="26" viewBox="0 0 26 26">
  <g id="ico_Linkedin" transform="translate(-904 -169)">
    <circle id="Ellipse_6" data-name="Ellipse 6" cx="13" cy="13" r="13" transform="translate(904 169)" fill="#fff"/>
    <g id="iconfinder_social-linkedin_216394" transform="translate(909.778 174.778)">
      <g id="Group_1" data-name="Group 1" transform="translate(0.052 4.127)">
        <path id="Path_5" data-name="Path 5" d="M8.1,19.317H5V9H8.1Zm11.349,0h-3.1V13.806c0-1.436-.512-2.151-1.526-2.151a1.525,1.525,0,0,0-1.569,1.2v6.461h-3.1s.041-9.286,0-10.317H12.6l.189,2.063h.064a3.445,3.445,0,0,1,3.04-1.731,3.2,3.2,0,0,1,2.566,1.033,4.465,4.465,0,0,1,.984,3.126Z" transform="translate(-5 -9)"/>
      </g>
      <g id="Group_2" data-name="Group 2" transform="translate(0 0)">
        <ellipse id="Ellipse_9" data-name="Ellipse 9" cx="1.599" cy="1.548" rx="1.599" ry="1.548"/>
      </g>
    </g>
  </g>
</svg>
