<svg xmlns="http://www.w3.org/2000/svg" width="26" height="26" viewBox="0 0 26 26">
  <g id="ico_Instagram" transform="translate(-703 -169)">
    <circle id="Ellipse_3" data-name="Ellipse 3" cx="13" cy="13" r="13" transform="translate(703 169)" fill="#fff"/>
    <g id="iconfinder_038_011_instagram_mobile_photo_network_android_material_1646917_1_" data-name="iconfinder_038_011_instagram_mobile_photo_network_android_material_1646917 (1)" transform="translate(708.778 174.778)">
      <path id="Path_3" data-name="Path 3" d="M13.031,3H7.414A4.414,4.414,0,0,0,3,7.414v5.617a4.414,4.414,0,0,0,4.414,4.414h5.617a4.414,4.414,0,0,0,4.414-4.414V7.414A4.414,4.414,0,0,0,13.031,3Zm3.21,10.031a3.214,3.214,0,0,1-3.21,3.21H7.414a3.214,3.214,0,0,1-3.21-3.21V7.414A3.213,3.213,0,0,1,7.414,4.2h5.617a3.213,3.213,0,0,1,3.21,3.21Z" transform="translate(-3 -3)"/>
      <path id="Path_4" data-name="Path 4" d="M11.111,7.5a3.611,3.611,0,1,0,3.611,3.611A3.611,3.611,0,0,0,11.111,7.5Zm0,6.019a2.407,2.407,0,1,1,2.407-2.407,2.407,2.407,0,0,1-2.407,2.407Z" transform="translate(-3.889 -3.889)"/>
      <circle id="Ellipse_8" data-name="Ellipse 8" cx="0.802" cy="0.802" r="0.802" transform="translate(10.191 2.648)"/>
    </g>
  </g>
</svg>
