<svg xmlns="http://www.w3.org/2000/svg" width="26" height="26" viewBox="0 0 26 26">
  <g id="ico_Twitter" transform="translate(-1105 -169)">
    <circle id="Ellipse_5" data-name="Ellipse 5" cx="13" cy="13" r="13" transform="translate(1105 169)" fill="#fff"/>
    <path id="iconfinder_03-twitter_104501" d="M18.018,11.716a5.9,5.9,0,0,1-1.7.466,2.969,2.969,0,0,0,1.3-1.64,5.932,5.932,0,0,1-1.882.72,2.966,2.966,0,0,0-5.049,2.7,8.414,8.414,0,0,1-6.108-3.1A2.967,2.967,0,0,0,5.5,14.825a2.955,2.955,0,0,1-1.342-.371c0,.012,0,.025,0,.038A2.966,2.966,0,0,0,6.532,17.4a2.98,2.98,0,0,1-.781.1,2.936,2.936,0,0,1-.558-.053,2.967,2.967,0,0,0,2.768,2.058,5.98,5.98,0,0,1-4.387,1.227,8.428,8.428,0,0,0,12.974-7.1q0-.193-.008-.384A6,6,0,0,0,18.018,11.716Z" transform="translate(1107.204 165.752)"/>
  </g>
</svg>
