<svg xmlns="http://www.w3.org/2000/svg" width="26" height="26" viewBox="0 0 26 26">
  <g id="ico_Youtube" transform="translate(-1306 -169)">
    <circle id="Ellipse_7" data-name="Ellipse 7" cx="13" cy="13" r="13" transform="translate(1306 169)" fill="#fff"/>
    <path id="iconfinder_038_008_youtube_video_social_network_android_material_1646914" d="M16.305,7.026a2.022,2.022,0,0,0-1.841-1.834C13.332,5.1,11.654,5,9.583,5c-2.493,0-4.376.1-5.593.2A2.022,2.022,0,0,0,2.139,7.033C2.065,7.817,2,8.852,2,10.086c0,1.2.064,2.22.138,2.994A2.021,2.021,0,0,0,3.99,14.914c1.217.1,3.1.2,5.594.2,2.071,0,3.749-.1,4.881-.192a2.021,2.021,0,0,0,1.841-1.834c.075-.78.139-1.808.139-3.03S16.38,7.805,16.305,7.026ZM7.616,12.178V7.933L11.8,10.056Z" transform="translate(1309.778 171.944)"/>
  </g>
</svg>
