<svg xmlns="http://www.w3.org/2000/svg" width="26" height="26" viewBox="0 0 26 26">
  <g id="ico_Snapchat" transform="translate(-99 -169)">
    <circle id="Ellipse_1" data-name="Ellipse 1" cx="13" cy="13" r="13" transform="translate(99 169)" fill="#fff"/>
    <path id="iconfinder_24-snapchat_843785" d="M11.289,19.479c-.04,0-.079,0-.118,0h0c-.025,0-.051,0-.077,0a3.367,3.367,0,0,1-2.063-.814,3.009,3.009,0,0,0-1.194-.609A3.854,3.854,0,0,0,7.211,18a4.288,4.288,0,0,0-.869.1,1.9,1.9,0,0,1-.324.047.2.2,0,0,1-.225-.161c-.036-.123-.062-.242-.087-.357-.065-.3-.111-.478-.235-.5-1.446-.223-1.86-.528-1.952-.744A.278.278,0,0,1,3.5,16.3a.163.163,0,0,1,.136-.17,4.792,4.792,0,0,0,3.261-2.734l0-.008a.847.847,0,0,0,.079-.711c-.153-.36-.65-.517-.979-.622-.081-.025-.157-.05-.217-.073-.657-.26-.712-.526-.686-.662a.621.621,0,0,1,.6-.393.423.423,0,0,1,.18.036,1.915,1.915,0,0,0,.792.209.653.653,0,0,0,.473-.151c-.008-.15-.018-.308-.028-.47a7.779,7.779,0,0,1,.184-3.1,4.021,4.021,0,0,1,3.733-2.408l.274,0h.037a4.028,4.028,0,0,1,3.74,2.409,7.781,7.781,0,0,1,.184,3.1l0,.046c-.009.146-.018.288-.025.424a.633.633,0,0,0,.431.15h0a1.982,1.982,0,0,0,.746-.207.563.563,0,0,1,.232-.046.708.708,0,0,1,.267.051l0,0a.49.49,0,0,1,.373.4c0,.154-.115.385-.691.613-.06.023-.136.048-.217.073-.33.1-.827.262-.979.622a.846.846,0,0,0,.079.711l0,.008a4.79,4.79,0,0,0,3.261,2.734.163.163,0,0,1,.136.17.274.274,0,0,1-.023.093c-.092.215-.505.519-1.952.742-.118.018-.164.172-.234.5-.026.118-.052.233-.087.354a.193.193,0,0,1-.207.155h-.018a1.812,1.812,0,0,1-.324-.041A4.318,4.318,0,0,0,15.172,18a3.859,3.859,0,0,0-.627.053,3,3,0,0,0-1.192.608A3.368,3.368,0,0,1,11.289,19.479Z" transform="translate(100.847 169.743)"/>
  </g>
</svg>
