<svg xmlns="http://www.w3.org/2000/svg" width="26" height="26" viewBox="0 0 26 26">
  <g id="ico_Tiktok" transform="translate(-300 -169)">
    <circle id="Ellipse_2" data-name="Ellipse 2" cx="13" cy="13" r="13" transform="translate(300 169)" fill="#fff"/>
    <path id="Path_2" data-name="Path 2" d="M4.166,14.351a4.565,4.565,0,0,1-1.642-.691A4.6,4.6,0,0,1,.861,11.64a4.567,4.567,0,0,1-.268-.862,4.637,4.637,0,0,1,0-1.851,4.566,4.566,0,0,1,.691-1.642A4.6,4.6,0,0,1,3.3,5.623a4.568,4.568,0,0,1,.862-.268A4.64,4.64,0,0,1,5.681,5.3V7.82c-.054-.016-.109-.029-.163-.04a2.137,2.137,0,0,0-.853,0,2.1,2.1,0,0,0-.757.318,2.123,2.123,0,0,0-.767.931,2.108,2.108,0,0,0-.123.4,2.136,2.136,0,0,0,0,.853,2.1,2.1,0,0,0,.318.757,2.123,2.123,0,0,0,.931.767,2.106,2.106,0,0,0,.4.123,2.136,2.136,0,0,0,.853,0,2.1,2.1,0,0,0,.757-.318,2.122,2.122,0,0,0,.767-.931,2.107,2.107,0,0,0,.123-.4,2.131,2.131,0,0,0,.043-.426V5.778l.012.006V0H9.681a3.214,3.214,0,0,0,1.07,2.494,3.473,3.473,0,0,0,2.388.965V5.94A6.8,6.8,0,0,1,10.883,5.5a7.081,7.081,0,0,1-1.212-.686v4.71q.012.163.012.328a4.625,4.625,0,0,1-.093.925A4.567,4.567,0,0,1,8.9,12.42a4.605,4.605,0,0,1-2.02,1.663,4.568,4.568,0,0,1-.862.267,4.635,4.635,0,0,1-1.851,0Z" transform="translate(306.216 174.85)" stroke="#707070" stroke-width="0"/>
  </g>
</svg>
